<svg width="625" height="182" viewBox="0 0 625 182" fill="none" xmlns="http://www.w3.org/2000/svg">
<path d="M31.04 15.2H38.4V60H31.04V40.608H11.84V60H4.48V15.2H11.84V33.568H31.04V15.2ZM86.395 54.112C81.915 58.592 76.4323 60.832 69.947 60.832C63.4617 60.832 57.9577 58.592 53.435 54.112C48.955 49.5893 46.715 44.0853 46.715 37.6C46.715 31.1147 48.955 25.632 53.435 21.152C57.9577 16.6293 63.4617 14.368 69.947 14.368C76.4323 14.368 81.915 16.6293 86.395 21.152C90.9177 25.632 93.179 31.1147 93.179 37.6C93.179 44.0853 90.9177 49.5893 86.395 54.112ZM58.619 49.12C61.691 52.1493 65.467 53.664 69.947 53.664C74.427 53.664 78.1817 52.1493 81.211 49.12C84.283 46.048 85.819 42.208 85.819 37.6C85.819 32.992 84.283 29.1733 81.211 26.144C78.1817 23.072 74.427 21.536 69.947 21.536C65.467 21.536 61.691 23.072 58.619 26.144C55.5897 29.1733 54.075 32.992 54.075 37.6C54.075 42.208 55.5897 46.048 58.619 49.12ZM127.86 36.768C129.823 37.792 131.359 39.2 132.468 40.992C133.578 42.784 134.132 44.8533 134.132 47.2C134.132 50.8693 132.831 53.92 130.229 56.352C127.626 58.784 124.447 60 120.692 60H101.492V15.2H119.284C122.954 15.2 126.047 16.3947 128.564 18.784C131.124 21.1307 132.404 24.0747 132.404 27.616C132.404 31.4987 130.89 34.5493 127.86 36.768ZM119.284 22.112H108.852V33.888H119.284C120.906 33.888 122.271 33.3333 123.38 32.224C124.49 31.072 125.044 29.664 125.044 28C125.044 26.336 124.49 24.9493 123.38 23.84C122.271 22.688 120.906 22.112 119.284 22.112ZM120.692 53.088C122.399 53.088 123.828 52.4907 124.98 51.296C126.175 50.0587 126.772 48.5653 126.772 46.816C126.772 45.0667 126.175 43.5947 124.98 42.4C123.828 41.1627 122.399 40.544 120.692 40.544H108.852V53.088H120.692ZM142.155 60V15.2H149.515V30.56H158.667C162.891 30.56 166.411 31.9893 169.227 34.848C172.086 37.664 173.515 41.1413 173.515 45.28C173.515 49.4187 172.086 52.9173 169.227 55.776C166.411 58.592 162.891 60 158.667 60H142.155ZM177.867 60V15.2H185.227V60H177.867ZM149.515 53.088H158.667C160.843 53.088 162.635 52.3627 164.043 50.912C165.451 49.4187 166.155 47.5413 166.155 45.28C166.155 43.0187 165.451 41.1627 164.043 39.712C162.635 38.2187 160.843 37.472 158.667 37.472H149.515V53.088ZM204.009 10.72V4.704H221.929V10.72H204.009ZM222.697 60V29.6L201.577 60H195.817V15.2H203.177V45.6L224.297 15.2H230.057V60H222.697ZM287.325 15.2V22.24H274.717V60H267.357V22.24H254.685V15.2H287.325ZM310.88 15.2C315.104 15.2 318.624 16.608 321.44 19.424C324.298 22.24 325.728 25.7387 325.728 29.92C325.728 34.0587 324.298 37.5573 321.44 40.416C318.624 43.232 315.104 44.64 310.88 44.64H301.728V60H294.368V15.2H310.88ZM310.88 37.728C313.056 37.728 314.848 37.0027 316.256 35.552C317.664 34.0587 318.368 32.1813 318.368 29.92C318.368 27.6587 317.664 25.8027 316.256 24.352C314.848 22.8587 313.056 22.112 310.88 22.112H301.728V37.728H310.88ZM341.077 52.96H360.917V60H333.717V15.2H360.597V22.24H341.077V33.888H358.997V40.864H341.077V52.96ZM395.815 15.2H403.175V60H395.815V40.608H376.615V60H369.255V15.2H376.615V33.568H395.815V15.2ZM447.33 52.96H452.13V68.576H444.77V60H417.57V68.576H410.21V52.96H414.37C416.973 49.5467 418.274 44.4053 418.274 37.536V15.2H447.33V52.96ZM422.434 52.96H439.97V22.112H425.634V37.664C425.634 44.32 424.567 49.4187 422.434 52.96Z" fill="#353535"/>
<path d="M77.664 113.832C70.9227 113.832 65.3333 111.613 60.896 107.176C56.4587 102.696 54.24 97.1707 54.24 90.6C54.24 84.0293 56.4587 78.5253 60.896 74.088C65.3333 69.608 70.9227 67.368 77.664 67.368C81.7173 67.368 85.4507 68.328 88.864 70.248C92.32 72.168 95.008 74.7707 96.928 78.056L90.528 81.768C89.3333 79.5493 87.584 77.8 85.28 76.52C83.0187 75.1973 80.48 74.536 77.664 74.536C72.8853 74.536 69.0027 76.0507 66.016 79.08C63.072 82.1093 61.6 85.9493 61.6 90.6C61.6 95.2507 63.072 99.0907 66.016 102.12C69.0027 105.149 72.8853 106.664 77.664 106.664C80.48 106.664 83.04 106.024 85.344 104.744C87.648 103.421 89.376 101.651 90.528 99.432L96.928 103.08C95.0507 106.365 92.384 108.989 88.928 110.952C85.5147 112.872 81.76 113.832 77.664 113.832ZM100.369 113V106.216C103.185 106.6 105.276 105.917 106.641 104.168C108.049 102.419 108.753 99.0693 108.753 94.12V68.2H138.77V113H131.41V75.24H116.113V93.992C116.113 97.9173 115.687 101.224 114.833 103.912C114.023 106.6 112.849 108.627 111.313 109.992C109.777 111.315 108.113 112.211 106.321 112.68C104.572 113.107 102.588 113.213 100.369 113ZM156.665 105.96H176.505V113H149.305V68.2H176.185V75.24H156.665V86.888H174.585V93.864H156.665V105.96ZM218.443 105.96H223.243V121.576H215.883V113H188.683V121.576H181.323V105.96H185.483C188.085 102.547 189.387 97.4053 189.387 90.536V68.2H218.443V105.96ZM193.547 105.96H211.083V75.112H196.747V90.664C196.747 97.32 195.68 102.419 193.547 105.96ZM268.07 107.112C263.59 111.592 258.107 113.832 251.622 113.832C245.137 113.832 239.633 111.592 235.11 107.112C230.63 102.589 228.39 97.0853 228.39 90.6C228.39 84.1147 230.63 78.632 235.11 74.152C239.633 69.6293 245.137 67.368 251.622 67.368C258.107 67.368 263.59 69.6293 268.07 74.152C272.593 78.632 274.854 84.1147 274.854 90.6C274.854 97.0853 272.593 102.589 268.07 107.112ZM240.294 102.12C243.366 105.149 247.142 106.664 251.622 106.664C256.102 106.664 259.857 105.149 262.886 102.12C265.958 99.048 267.494 95.208 267.494 90.6C267.494 85.992 265.958 82.1733 262.886 79.144C259.857 76.072 256.102 74.536 251.622 74.536C247.142 74.536 243.366 76.072 240.294 79.144C237.265 82.1733 235.75 85.992 235.75 90.6C235.75 95.208 237.265 99.048 240.294 102.12ZM326.048 68.2V113H318.688V81.064L305.056 103.592H304.16L290.528 81V113H283.168V68.2H291.104L304.608 90.6L318.176 68.2H326.048ZM376.964 89.768C381.529 91.944 383.812 95.5493 383.812 100.584C383.812 104.509 382.319 107.709 379.332 110.184C376.388 112.616 372.527 113.832 367.748 113.832C359.556 113.832 354.137 110.376 351.492 103.464L357.828 99.816C359.151 104.552 362.457 106.92 367.748 106.92C370.564 106.92 372.719 106.323 374.212 105.128C375.705 103.891 376.452 102.248 376.452 100.2C376.452 98.1947 375.727 96.5947 374.276 95.4C372.868 94.1627 370.863 93.544 368.26 93.544H362.82V86.888H366.788C369.305 86.888 371.268 86.312 372.676 85.16C374.084 84.008 374.788 82.472 374.788 80.552C374.788 78.632 374.148 77.1173 372.868 76.008C371.588 74.856 369.753 74.28 367.364 74.28C362.927 74.28 359.94 76.3067 358.404 80.36L352.132 76.712C355.033 70.4827 360.111 67.368 367.364 67.368C371.759 67.368 375.321 68.5627 378.052 70.952C380.783 73.2987 382.148 76.3707 382.148 80.168C382.148 84.392 380.42 87.592 376.964 89.768ZM421.026 113L417.89 103.976H398.818L395.682 113H387.682L403.938 68.2H412.77L428.962 113H421.026ZM401.25 97.064H415.458L408.354 76.84L401.25 97.064Z" fill="#D99E65"/>
<path d="M144.272 166H135.504L117.84 144.688V166H110.48V121.2H117.84V141.296L134.864 121.2H143.632L125.52 143.024L144.272 166ZM184.27 160.112C179.79 164.592 174.307 166.832 167.822 166.832C161.337 166.832 155.833 164.592 151.31 160.112C146.83 155.589 144.59 150.085 144.59 143.6C144.59 137.115 146.83 131.632 151.31 127.152C155.833 122.629 161.337 120.368 167.822 120.368C174.307 120.368 179.79 122.629 184.27 127.152C188.793 131.632 191.054 137.115 191.054 143.6C191.054 150.085 188.793 155.589 184.27 160.112ZM156.494 155.12C159.566 158.149 163.342 159.664 167.822 159.664C172.302 159.664 176.057 158.149 179.086 155.12C182.158 152.048 183.694 148.208 183.694 143.6C183.694 138.992 182.158 135.173 179.086 132.144C176.057 129.072 172.302 127.536 167.822 127.536C163.342 127.536 159.566 129.072 156.494 132.144C153.465 135.173 151.95 138.992 151.95 143.6C151.95 148.208 153.465 152.048 156.494 155.12ZM225.735 142.768C227.698 143.792 229.234 145.2 230.343 146.992C231.453 148.784 232.007 150.853 232.007 153.2C232.007 156.869 230.706 159.92 228.104 162.352C225.501 164.784 222.322 166 218.567 166H199.367V121.2H217.159C220.829 121.2 223.922 122.395 226.439 124.784C228.999 127.131 230.279 130.075 230.279 133.616C230.279 137.499 228.765 140.549 225.735 142.768ZM217.159 128.112H206.727V139.888H217.159C218.781 139.888 220.146 139.333 221.255 138.224C222.365 137.072 222.919 135.664 222.919 134C222.919 132.336 222.365 130.949 221.255 129.84C220.146 128.688 218.781 128.112 217.159 128.112ZM218.567 159.088C220.274 159.088 221.703 158.491 222.855 157.296C224.05 156.059 224.647 154.565 224.647 152.816C224.647 151.067 224.05 149.595 222.855 148.4C221.703 147.163 220.274 146.544 218.567 146.544H206.727V159.088H218.567ZM277.47 160.112C272.99 164.592 267.507 166.832 261.022 166.832C254.537 166.832 249.033 164.592 244.51 160.112C240.03 155.589 237.79 150.085 237.79 143.6C237.79 137.115 240.03 131.632 244.51 127.152C249.033 122.629 254.537 120.368 261.022 120.368C267.507 120.368 272.99 122.629 277.47 127.152C281.993 131.632 284.254 137.115 284.254 143.6C284.254 150.085 281.993 155.589 277.47 160.112ZM249.694 155.12C252.766 158.149 256.542 159.664 261.022 159.664C265.502 159.664 269.257 158.149 272.286 155.12C275.358 152.048 276.894 148.208 276.894 143.6C276.894 138.992 275.358 135.173 272.286 132.144C269.257 129.072 265.502 127.536 261.022 127.536C256.542 127.536 252.766 129.072 249.694 132.144C246.665 135.173 245.15 138.992 245.15 143.6C245.15 148.208 246.665 152.048 249.694 155.12ZM309.079 121.2C313.303 121.2 316.823 122.608 319.639 125.424C322.498 128.24 323.927 131.739 323.927 135.92C323.927 140.059 322.498 143.557 319.639 146.416C316.823 149.232 313.303 150.64 309.079 150.64H299.927V166H292.567V121.2H309.079ZM309.079 143.728C311.255 143.728 313.047 143.003 314.455 141.552C315.863 140.059 316.567 138.181 316.567 135.92C316.567 133.659 315.863 131.803 314.455 130.352C313.047 128.859 311.255 128.112 309.079 128.112H299.927V143.728H309.079ZM365.71 166H356.942L339.278 144.688V166H331.918V121.2H339.278V141.296L356.302 121.2H365.069L346.958 143.024L365.71 166ZM398.96 166V135.6L377.84 166H372.08V121.2H379.44V151.6L400.56 121.2H406.32V166H398.96ZM443.428 121.2H450.788V166H443.428V146.608H424.228V166H416.868V121.2H424.228V139.568H443.428V121.2ZM486.622 121.2V128.24H468.702V166H461.342V121.2H486.622ZM517.751 166L514.615 156.976H495.543L492.407 166H484.407L500.663 121.2H509.495L525.687 166H517.751ZM497.975 150.064H512.183L505.079 129.84L497.975 150.064ZM574.985 121.2V166H567.625V134.064L553.993 156.592H553.097L539.465 134V166H532.105V121.2H540.041L553.545 143.6L567.113 121.2H574.985ZM612.398 166V135.6L591.278 166H585.518V121.2H592.878V151.6L613.998 121.2H619.758V166H612.398Z" fill="#353535"/>
</svg>
