<svg width="133" height="51" viewBox="0 0 133 51" fill="none" xmlns="http://www.w3.org/2000/svg">
<path d="M35.9404 30.1615V33.9036H24.5581V12.7981H28.2832V30.1615H35.9404Z" fill="#2C2C2C"/>
<path d="M49.53 30.1615V33.9036H38.1477V12.7981H41.8728V30.1615H49.53Z" fill="#2C2C2C"/>
<path d="M64.0855 26.8686H61.1882V33.8289H57.4631V12.7234H64.2925C68.4315 12.7234 71.1908 15.5674 71.1908 19.9082C71.1908 22.9768 69.8801 25.1472 67.6037 26.195L72.1566 33.9037H68.1556L64.0855 26.8686ZM61.1882 23.351H63.8786C65.9481 23.351 67.3278 22.378 67.3278 19.9082C67.3278 17.4385 65.9481 16.4655 63.8786 16.4655H61.1882V23.351Z" fill="#2C2C2C"/>
<path d="M74.019 12.7234H77.7441V33.8289H74.019V12.7234Z" fill="#2C2C2C"/>
<path d="M90.2992 34.203C84.9185 34.203 80.2966 29.937 80.2966 23.3509C80.2966 16.7648 84.9185 12.4988 90.3682 12.4988C92.9896 12.4988 96.1628 13.5466 98.2323 17.0642L95.542 19.0849C94.2313 17.139 92.4377 16.3157 90.4372 16.3157C86.988 16.3157 84.1597 18.9352 84.1597 23.2761C84.1597 27.6169 86.919 30.3861 90.4372 30.3861C92.8516 30.3861 94.9901 29.1886 95.542 25.8955H90.9201V22.4528H99.1981C100.095 29.8622 95.6799 34.203 90.2992 34.203Z" fill="#2C2C2C"/>
<path d="M117.341 12.7234V33.8289H113.616V25.1472H105.614V33.8289H101.888V12.7234H105.614V21.4799H113.616V12.7234H117.341Z" fill="#2C2C2C"/>
<path d="M133 16.4655H128.309V33.8289H124.584V16.4655H119.893V12.7234H133V16.4655Z" fill="#2C2C2C"/>
<path d="M73.0537 48.5726V49.3211C72.9157 49.4707 72.7087 49.4708 72.5708 49.4708C72.0879 49.4708 71.812 49.0965 71.812 48.5726V48.4978C71.605 49.0217 71.0531 49.5456 70.2253 49.5456C69.2596 49.5456 68.3628 48.872 68.3628 47.5997C68.3628 46.4771 69.0526 45.8783 69.7425 45.8035L68.7767 43.6331H71.674V44.3815H69.7425L70.6392 46.4022H70.4323C69.7425 46.4022 69.2596 46.8513 69.2596 47.5997C69.2596 48.3481 69.8114 48.7972 70.3633 48.7972C70.9842 48.7972 71.605 48.3481 71.605 47.45V45.9532H72.9847V46.7016H72.4328V48.2733C72.4328 48.4978 72.5708 48.7223 72.7777 48.7223C72.8467 48.6475 72.9847 48.6475 73.0537 48.5726Z" fill="#D99E65"/>
<path d="M75.6748 43.5581H76.5026V49.3958H75.6748V43.5581Z" fill="#D99E65"/>
<path d="M81.1243 46.8512V49.3958H80.2965V47.0008C80.2965 46.2524 79.8825 45.8034 79.3307 45.8034C78.7788 45.8034 78.3649 46.2524 78.3649 47.0008V49.3958H77.5371V45.1298H78.3649V45.8034C78.5719 45.4291 78.9858 45.0549 79.6066 45.0549C80.4344 45.0549 81.1243 45.5788 81.1243 46.8512Z" fill="#D99E65"/>
<path d="M81.6763 45.1299H82.5041L83.6768 48.3481L84.8495 45.1299H85.7463L84.0907 49.3959H83.3319L81.6763 45.1299Z" fill="#D99E65"/>
<path d="M90.0232 47.5997H86.919C87.0569 48.3481 87.6088 48.7223 88.2986 48.7223C88.7125 48.7223 89.1264 48.5727 89.4024 48.2733L89.8163 48.7223C89.4714 49.1714 88.9195 49.4708 88.2297 49.4708C87.1259 49.4708 86.1602 48.6475 86.1602 47.2255C86.1602 45.8035 87.1259 44.9802 88.1607 44.9802C89.1264 45.0551 90.2302 45.8035 90.0232 47.5997ZM86.919 46.9261H89.2644C89.1954 46.1777 88.6436 45.8035 88.0917 45.8035C87.6088 45.8035 87.0569 46.1777 86.919 46.9261Z" fill="#D99E65"/>
<path d="M90.5061 48.3481L91.1959 48.1236C91.2649 48.4978 91.5409 48.7971 91.9548 48.7971C92.2997 48.7971 92.5756 48.6475 92.5756 48.2733C92.5756 47.9739 92.4376 47.8242 92.0237 47.6745L91.6098 47.5248C90.989 47.2255 90.7131 46.7764 90.7131 46.3274C90.7131 45.5789 91.3339 45.1299 92.0237 45.1299C92.7136 45.1299 93.1965 45.5041 93.3344 46.1777L92.6446 46.4022C92.5066 46.028 92.2997 45.8783 92.0237 45.8783C91.7478 45.8783 91.4719 46.028 91.4719 46.3274C91.4719 46.5519 91.6098 46.7764 91.9548 46.8513L92.3687 47.0009C92.9205 47.2255 93.4034 47.5248 93.4034 48.2733C93.4034 49.0965 92.7136 49.5456 91.9548 49.5456C91.1959 49.4707 90.6441 49.0965 90.5061 48.3481Z" fill="#D99E65"/>
<path d="M95.3349 45.8783V48.1984C95.3349 48.4229 95.4729 48.6474 95.7488 48.6474C95.8178 48.6474 95.9557 48.6474 96.0937 48.5726V49.321C95.9557 49.4707 95.6798 49.4707 95.4729 49.4707C94.852 49.4707 94.4381 49.1713 94.4381 48.3481V45.8034H93.8862V45.055H94.4381V43.9324H95.2659V45.055H96.0937V45.8034H95.3349V45.8783Z" fill="#D99E65"/>
<path d="M102.923 46.926V49.4706H102.095V47.0008C102.095 46.3272 101.751 45.8782 101.268 45.8782C100.716 45.8782 100.371 46.2524 100.371 47.0008V49.4706H99.5431V47.0008C99.5431 46.3272 99.1982 45.8782 98.7153 45.8782C98.1634 45.8782 97.8185 46.2524 97.8185 47.0008V49.4706H96.9907V45.2046H97.8185V45.8033C98.0255 45.4291 98.3704 45.1298 98.9912 45.1298C99.5431 45.1298 99.957 45.3543 100.164 45.8782C100.371 45.4291 100.785 45.1298 101.475 45.1298C102.371 45.0549 102.923 45.5788 102.923 46.926Z" fill="#D99E65"/>
<path d="M107.683 47.5997H104.579C104.717 48.3481 105.268 48.7223 105.958 48.7223C106.372 48.7223 106.786 48.5727 107.062 48.2733L107.476 48.7223C107.131 49.1714 106.579 49.4708 105.889 49.4708C104.786 49.4708 103.82 48.6475 103.82 47.2255C103.82 45.8035 104.786 44.9802 105.82 44.9802C106.717 45.0551 107.821 45.8035 107.683 47.5997ZM104.51 46.9261H106.855C106.786 46.1777 106.234 45.8035 105.682 45.8035C105.199 45.8035 104.648 46.1777 104.51 46.9261Z" fill="#D99E65"/>
<path d="M112.098 46.8512V49.3958H111.27V47.0008C111.27 46.2524 110.856 45.8034 110.304 45.8034C109.752 45.8034 109.339 46.2524 109.339 47.0008V49.3958H108.511V45.1298H109.339V45.8034C109.545 45.4291 109.959 45.0549 110.58 45.0549C111.408 45.0549 112.098 45.5788 112.098 46.8512Z" fill="#D99E65"/>
<path d="M114.168 45.8783V48.1984C114.168 48.4229 114.306 48.6474 114.582 48.6474C114.651 48.6474 114.789 48.6474 114.926 48.5726V49.321C114.789 49.4707 114.513 49.4707 114.306 49.4707C113.685 49.4707 113.271 49.1713 113.271 48.3481V45.8034H112.719V45.055H113.271V43.9324H114.099V45.055H114.926V45.8034H114.168V45.8783Z" fill="#D99E65"/>
<path d="M18.0046 43.5581H19.7982C21.3158 43.5581 22.4196 44.7556 22.4196 46.477C22.4196 48.1983 21.3158 49.3958 19.7982 49.3958H18.0046V43.5581ZM19.7292 48.4977C20.9019 48.4977 21.5228 47.6744 21.5228 46.477C21.5228 45.2795 20.9019 44.4562 19.7292 44.4562H18.8324V48.5725H19.7292V48.4977Z" fill="#D99E65"/>
<path d="M26.9727 47.5997H23.8684C24.0064 48.3481 24.5583 48.7223 25.2481 48.7223C25.662 48.7223 26.0759 48.5727 26.3518 48.2733L26.7657 48.7223C26.4208 49.1714 25.869 49.4708 25.1791 49.4708C24.0754 49.4708 23.1096 48.6475 23.1096 47.2255C23.1096 45.8035 24.0754 44.9802 25.1101 44.9802C26.1449 44.9802 27.1796 45.8035 26.9727 47.5997ZM23.8684 46.9261H26.2139C26.1449 46.1777 25.593 45.8035 25.0412 45.8035C24.4893 45.8035 23.9374 46.1777 23.8684 46.9261Z" fill="#D99E65"/>
<path d="M27.3174 45.1299H28.1452L29.3179 48.3481L30.4906 45.1299H31.3874L29.7318 49.3959H28.973L27.3174 45.1299Z" fill="#D99E65"/>
<path d="M35.5955 47.5997H32.4912C32.6292 48.3481 33.1811 48.7223 33.8709 48.7223C34.2848 48.7223 34.6987 48.5727 34.9746 48.2733L35.3885 48.7223C35.0436 49.1714 34.4918 49.4708 33.8019 49.4708C32.6982 49.4708 31.7324 48.6475 31.7324 47.2255C31.7324 45.8035 32.6982 44.9802 33.7329 44.9802C34.6987 45.0551 35.8025 45.8035 35.5955 47.5997ZM32.4912 46.9261H34.8367C34.7677 46.1777 34.2158 45.8035 33.664 45.8035C33.1811 45.8035 32.6292 46.1777 32.4912 46.9261Z" fill="#D99E65"/>
<path d="M36.4233 43.5581H37.2511V49.3958H36.4233V43.5581Z" fill="#D99E65"/>
<path d="M38.0789 47.2255C38.0789 45.8035 39.1136 44.9802 40.1484 44.9802C41.1831 44.9802 42.2178 45.7286 42.2178 47.2255C42.2178 48.6475 41.1831 49.4708 40.1484 49.4708C39.1136 49.4708 38.0789 48.7223 38.0789 47.2255ZM41.39 47.2255C41.39 46.3274 40.7692 45.8035 40.1484 45.8035C39.5275 45.8035 38.9067 46.3274 38.9067 47.2255C38.9067 48.1236 39.5275 48.6475 40.1484 48.6475C40.8382 48.6475 41.39 48.1236 41.39 47.2255Z" fill="#D99E65"/>
<path d="M47.1158 47.2254C47.1158 48.7222 46.15 49.4706 45.1843 49.4706C44.4944 49.4706 43.9426 49.0216 43.8046 48.7222V50.9675H42.9768V45.1298H43.8046V45.8034C43.9426 45.4291 44.4255 45.0549 45.1843 45.0549C46.15 45.0549 47.1158 45.8034 47.1158 47.2254ZM46.288 47.2254C46.288 46.3273 45.6672 45.8034 45.0463 45.8034C44.4255 45.8034 43.8046 46.2524 43.8046 47.2254C43.8046 48.1983 44.4255 48.6474 45.0463 48.6474C45.6672 48.6474 46.288 48.1983 46.288 47.2254Z" fill="#D99E65"/>
<path d="M53.8762 46.926V49.4706H53.0484V47.0008C53.0484 46.3272 52.7035 45.8782 52.2206 45.8782C51.6687 45.8782 51.3238 46.2524 51.3238 47.0008V49.4706H50.496V47.0008C50.496 46.3272 50.1511 45.8782 49.6682 45.8782C49.1163 45.8782 48.7714 46.2524 48.7714 47.0008V49.4706H47.9436V45.2046H48.7714V45.8033C48.9784 45.4291 49.3233 45.1298 49.9441 45.1298C50.496 45.1298 50.9099 45.3543 51.1168 45.8782C51.3238 45.4291 51.7377 45.1298 52.4275 45.1298C53.2553 45.0549 53.8762 45.5788 53.8762 46.926Z" fill="#D99E65"/>
<path d="M58.5669 47.5997H55.4627C55.6006 48.3481 56.1525 48.7223 56.8423 48.7223C57.2562 48.7223 57.6701 48.5727 57.9461 48.2733L58.36 48.7223C58.0151 49.1714 57.4632 49.4708 56.7734 49.4708C55.6696 49.4708 54.7039 48.6475 54.7039 47.2255C54.7039 45.8035 55.6696 44.9802 56.7044 44.9802C57.6701 45.0551 58.7739 45.8035 58.5669 47.5997ZM55.4627 46.9261H57.8081C57.7391 46.1777 57.1873 45.8035 56.6354 45.8035C56.0835 45.8035 55.6006 46.1777 55.4627 46.9261Z" fill="#D99E65"/>
<path d="M63.0508 46.8512V49.3958H62.223V47.0008C62.223 46.2524 61.8091 45.8034 61.2572 45.8034C60.7053 45.8034 60.2914 46.2524 60.2914 47.0008V49.3958H59.4636V45.1298H60.2914V45.8034C60.4984 45.4291 60.9123 45.0549 61.5331 45.0549C62.3609 45.0549 63.0508 45.5788 63.0508 46.8512Z" fill="#D99E65"/>
<path d="M65.1205 45.8783V48.1984C65.1205 48.4229 65.2585 48.6474 65.5344 48.6474C65.6034 48.6474 65.7414 48.6474 65.8793 48.5726V49.321C65.7414 49.4707 65.4654 49.4707 65.2585 49.4707C64.6376 49.4707 64.2237 49.1713 64.2237 48.3481V45.8034H63.6719V45.055H64.2237V43.9324H65.0515V45.055H65.8793V45.8034H65.1205V45.8783Z" fill="#D99E65"/>
<path d="M22.1436 33.9035H18.6945V23.8746L14.9004 19.8331L17.3838 17.2136L22.1436 22.3777V33.9035Z" fill="#2C2C2C"/>
<path d="M5.17375 25.0721L0 19.384L2.41442 16.7646L5.03579 19.6086L16.8319 6.13696L19.3843 8.60676L5.17375 25.0721Z" fill="#2C2C2C"/>
<path d="M5.1737 29.5625L3.44911 27.6914H3.38013V33.9033H6.8293V27.6914H6.76032L5.1737 29.5625Z" fill="#2C2C2C"/>
<path d="M12.2101 24.3984H10.2786V26.494H12.2101V24.3984Z" fill="#2C2C2C"/>
<path d="M12.2101 27.6914H10.2786V29.787H12.2101V27.6914Z" fill="#2C2C2C"/>
<path d="M15.2453 24.3984H13.3137V26.494H15.2453V24.3984Z" fill="#2C2C2C"/>
<path d="M15.2453 27.6914H13.3137V29.787H15.2453V27.6914Z" fill="#2C2C2C"/>
<path d="M80.3656 10.6276L75.9507 5.8377L71.8117 10.4031L69.1213 7.48423L75.9507 0L83.056 7.70875L80.3656 10.6276Z" fill="#D99E65"/>
</svg>
