<svg width="269" height="46" viewBox="0 0 269 46" fill="none" xmlns="http://www.w3.org/2000/svg">
<path d="M0.832 0.199997H29.76V7.688L14.592 45H5.248L19.968 8.648H0.832V0.199997ZM67.919 45L63.759 33.992H42.511L38.351 45H33.615L50.831 0.199997H55.439L72.655 45H67.919ZM44.111 29.768H62.159L53.135 5.768L44.111 29.768ZM89.477 45L72.965 0.199997H77.829L91.781 39.048L105.733 0.199997H110.597L94.085 45H89.477ZM122.463 40.776H144.223V45H117.983V0.199997H143.903V4.424H122.463V20.296H142.303V24.52H122.463V40.776ZM182.32 0.199997H186.8V45H182.96L158 8.52V45H153.52V0.199997H157.36L182.32 36.68V0.199997ZM226.652 41.416C223.58 44.3173 219.569 45.768 214.62 45.768C209.671 45.768 205.66 44.3173 202.588 41.416C199.516 38.5147 197.98 34.632 197.98 29.768V0.199997H202.46V29.768C202.46 33.352 203.527 36.1893 205.66 38.28C207.793 40.3707 210.78 41.416 214.62 41.416C218.46 41.416 221.447 40.3707 223.58 38.28C225.713 36.1893 226.78 33.352 226.78 29.768V0.199997H231.26V29.768C231.26 34.632 229.724 38.5147 226.652 41.416ZM246.95 40.776H268.71V45H242.47V0.199997H268.39V4.424H246.95V20.296H266.79V24.52H246.95V40.776Z" fill="#2C2C2C"/>
</svg>
