<svg width="386" height="47" viewBox="0 0 386 47" fill="none" xmlns="http://www.w3.org/2000/svg">
<path d="M18.536 36.576C13.448 36.576 9.24 34.896 5.912 31.536C2.584 28.176 0.92 24.064 0.92 19.2C0.92 14.336 2.584 10.224 5.912 6.864C9.24 3.504 13.448 1.824 18.536 1.824C21.64 1.824 24.488 2.576 27.08 4.08C29.672 5.552 31.672 7.552 33.08 10.08L30.104 11.808C29.048 9.76 27.48 8.128 25.4 6.912C23.32 5.696 21.032 5.088 18.536 5.088C14.344 5.088 10.92 6.448 8.264 9.168C5.608 11.888 4.28 15.232 4.28 19.2C4.28 23.168 5.608 26.512 8.264 29.232C10.92 31.952 14.344 33.312 18.536 33.312C21.032 33.312 23.32 32.704 25.4 31.488C27.48 30.272 29.048 28.64 30.104 26.592L33.08 28.272C31.704 30.8 29.704 32.816 27.08 34.32C24.488 35.824 21.64 36.576 18.536 36.576ZM59.2033 32.976C56.7713 35.376 53.7953 36.576 50.2753 36.576C46.7553 36.576 43.7633 35.376 41.2993 32.976C38.8673 30.544 37.6513 27.552 37.6513 24C37.6513 20.448 38.8673 17.472 41.2993 15.072C43.7633 12.64 46.7553 11.424 50.2753 11.424C53.7953 11.424 56.7713 12.64 59.2033 15.072C61.6673 17.472 62.8993 20.448 62.8993 24C62.8993 27.552 61.6673 30.544 59.2033 32.976ZM43.5553 30.768C45.3793 32.592 47.6193 33.504 50.2753 33.504C52.9313 33.504 55.1713 32.592 56.9953 30.768C58.8193 28.912 59.7313 26.656 59.7313 24C59.7313 21.344 58.8193 19.104 56.9953 17.28C55.1713 15.424 52.9313 14.496 50.2753 14.496C47.6193 14.496 45.3793 15.424 43.5553 17.28C41.7313 19.104 40.8193 21.344 40.8193 24C40.8193 26.656 41.7313 28.912 43.5553 30.768ZM69.8806 22.704V19.632H87.1606V22.704H69.8806ZM95.5381 36V0.959999H98.7061V36H95.5381ZM109.845 6.24C109.397 6.688 108.853 6.912 108.213 6.912C107.573 6.912 107.029 6.688 106.581 6.24C106.133 5.792 105.909 5.248 105.909 4.608C105.909 3.968 106.133 3.424 106.581 2.976C107.029 2.528 107.573 2.304 108.213 2.304C108.853 2.304 109.397 2.528 109.845 2.976C110.293 3.424 110.517 3.968 110.517 4.608C110.517 5.248 110.293 5.792 109.845 6.24ZM106.629 36V12H109.797V36H106.629ZM134.999 12H138.359L128.519 36H124.679L114.839 12H118.199L126.599 32.688L134.999 12ZM146.604 6.24C146.156 6.688 145.612 6.912 144.972 6.912C144.332 6.912 143.788 6.688 143.34 6.24C142.892 5.792 142.668 5.248 142.668 4.608C142.668 3.968 142.892 3.424 143.34 2.976C143.788 2.528 144.332 2.304 144.972 2.304C145.612 2.304 146.156 2.528 146.604 2.976C147.052 3.424 147.276 3.968 147.276 4.608C147.276 5.248 147.052 5.792 146.604 6.24ZM143.388 36V12H146.556V36H143.388ZM165.711 11.424C168.623 11.424 170.911 12.32 172.575 14.112C174.271 15.872 175.119 18.256 175.119 21.264V36H171.951V21.264C171.951 19.12 171.375 17.456 170.223 16.272C169.103 15.088 167.503 14.496 165.423 14.496C163.119 14.496 161.247 15.232 159.807 16.704C158.367 18.144 157.647 20.384 157.647 23.424V36H154.479V12H157.647V15.744C159.439 12.864 162.127 11.424 165.711 11.424ZM203.084 12H206.252V35.04C206.252 38.496 205.068 41.216 202.7 43.2C200.332 45.184 197.5 46.176 194.204 46.176C188.572 46.176 184.78 44.224 182.828 40.32L185.612 38.736C187.052 41.648 189.916 43.104 194.204 43.104C196.956 43.104 199.116 42.368 200.684 40.896C202.284 39.456 203.084 37.504 203.084 35.04V31.296C200.876 34.816 197.644 36.576 193.388 36.576C189.964 36.576 187.036 35.36 184.604 32.928C182.204 30.496 181.004 27.52 181.004 24C181.004 20.48 182.204 17.504 184.604 15.072C187.036 12.64 189.964 11.424 193.388 11.424C197.644 11.424 200.876 13.184 203.084 16.704V12ZM186.908 30.768C188.732 32.592 190.972 33.504 193.628 33.504C196.284 33.504 198.524 32.592 200.348 30.768C202.172 28.912 203.084 26.656 203.084 24C203.084 21.344 202.172 19.104 200.348 17.28C198.524 15.424 196.284 14.496 193.628 14.496C190.972 14.496 188.732 15.424 186.908 17.28C185.084 19.104 184.172 21.344 184.172 24C184.172 26.656 185.084 28.912 186.908 30.768ZM240.224 11.424C243.648 11.424 246.56 12.64 248.96 15.072C251.392 17.504 252.608 20.48 252.608 24C252.608 27.52 251.392 30.496 248.96 32.928C246.56 35.36 243.648 36.576 240.224 36.576C235.968 36.576 232.736 34.816 230.528 31.296V45.6H227.36V12H230.528V16.704C232.736 13.184 235.968 11.424 240.224 11.424ZM233.264 30.768C235.088 32.592 237.328 33.504 239.984 33.504C242.64 33.504 244.88 32.592 246.704 30.768C248.528 28.912 249.44 26.656 249.44 24C249.44 21.344 248.528 19.104 246.704 17.28C244.88 15.424 242.64 14.496 239.984 14.496C237.328 14.496 235.088 15.424 233.264 17.28C231.44 19.104 230.528 21.344 230.528 24C230.528 26.656 231.44 28.912 233.264 30.768ZM262.244 15.984C263.716 13.072 266.244 11.616 269.828 11.616V14.688C267.652 14.688 265.844 15.328 264.404 16.608C262.964 17.888 262.244 19.904 262.244 22.656V36H259.076V12H262.244V15.984ZM294.028 32.976C291.596 35.376 288.62 36.576 285.1 36.576C281.58 36.576 278.588 35.376 276.124 32.976C273.692 30.544 272.476 27.552 272.476 24C272.476 20.448 273.692 17.472 276.124 15.072C278.588 12.64 281.58 11.424 285.1 11.424C288.62 11.424 291.596 12.64 294.028 15.072C296.492 17.472 297.724 20.448 297.724 24C297.724 27.552 296.492 30.544 294.028 32.976ZM278.38 30.768C280.204 32.592 282.444 33.504 285.1 33.504C287.756 33.504 289.996 32.592 291.82 30.768C293.644 28.912 294.556 26.656 294.556 24C294.556 21.344 293.644 19.104 291.82 17.28C289.996 15.424 287.756 14.496 285.1 14.496C282.444 14.496 280.204 15.424 278.38 17.28C276.556 19.104 275.644 21.344 275.644 24C275.644 26.656 276.556 28.912 278.38 30.768ZM304.627 2.976C305.075 2.528 305.619 2.304 306.259 2.304C306.899 2.304 307.443 2.528 307.891 2.976C308.339 3.424 308.563 3.968 308.563 4.608C308.563 5.248 308.339 5.792 307.891 6.24C307.443 6.688 306.899 6.912 306.259 6.912C305.619 6.912 305.075 6.688 304.627 6.24C304.179 5.792 303.955 5.248 303.955 4.608C303.955 3.968 304.179 3.424 304.627 2.976ZM304.675 37.92V12H307.843V37.92C307.843 40.8 307.091 42.96 305.587 44.4C304.083 45.84 301.955 46.432 299.203 46.176V43.104C301.091 43.296 302.467 42.992 303.331 42.192C304.227 41.392 304.675 39.968 304.675 37.92ZM326.873 11.424C330.425 11.424 333.289 12.688 335.465 15.216C337.673 17.712 338.777 20.672 338.777 24.096C338.777 24.448 338.745 24.944 338.681 25.584H317.609C317.929 28.016 318.953 29.952 320.681 31.392C322.441 32.8 324.601 33.504 327.161 33.504C328.985 33.504 330.553 33.136 331.865 32.4C333.209 31.632 334.217 30.64 334.889 29.424L337.673 31.056C336.617 32.752 335.177 34.096 333.353 35.088C331.529 36.08 329.449 36.576 327.113 36.576C323.337 36.576 320.265 35.392 317.897 33.024C315.529 30.656 314.345 27.648 314.345 24C314.345 20.416 315.513 17.424 317.849 15.024C320.185 12.624 323.193 11.424 326.873 11.424ZM326.873 14.496C324.377 14.496 322.281 15.248 320.585 16.752C318.921 18.224 317.929 20.144 317.609 22.512H335.513C335.193 19.984 334.217 18.016 332.585 16.608C330.953 15.2 329.049 14.496 326.873 14.496ZM356.2 36.576C352.584 36.576 349.576 35.376 347.176 32.976C344.776 30.544 343.576 27.552 343.576 24C343.576 20.448 344.776 17.472 347.176 15.072C349.576 12.64 352.584 11.424 356.2 11.424C358.568 11.424 360.696 12 362.584 13.152C364.472 14.272 365.848 15.792 366.712 17.712L364.12 19.2C363.48 17.76 362.44 16.624 361 15.792C359.592 14.928 357.992 14.496 356.2 14.496C353.544 14.496 351.304 15.424 349.48 17.28C347.656 19.104 346.744 21.344 346.744 24C346.744 26.656 347.656 28.912 349.48 30.768C351.304 32.592 353.544 33.504 356.2 33.504C357.992 33.504 359.592 33.088 361 32.256C362.408 31.392 363.512 30.24 364.312 28.8L366.952 30.336C365.96 32.256 364.504 33.776 362.584 34.896C360.664 36.016 358.536 36.576 356.2 36.576ZM385.421 15.072H378.509V29.616C378.509 30.928 378.765 31.872 379.277 32.448C379.789 32.992 380.557 33.28 381.581 33.312C382.605 33.312 383.885 33.28 385.421 33.216V36C382.061 36.512 379.533 36.272 377.837 35.28C376.173 34.288 375.341 32.4 375.341 29.616V15.072H370.301V12H375.341V6.24L378.509 5.28V12H385.421V15.072Z" fill="#D99E65"/>
</svg>
