<svg width="429" height="23" viewBox="0 0 429 23" fill="none" xmlns="http://www.w3.org/2000/svg">
<path d="M11.24 18L11.24 5.472L2.6 18H0.8L0.8 1.2H3.032V13.752L11.672 1.2H13.472L13.472 18H11.24ZM25.1536 6H27.2416V18H25.1536V12.984H18.9376V18H16.8496V6H18.9376V10.992H25.1536V6ZM38.4119 11.832C39.6439 12.344 40.2599 13.272 40.2599 14.616C40.2599 15.608 39.9239 16.424 39.2519 17.064C38.5959 17.688 37.6519 18 36.4199 18H30.4199V6H35.9399C37.1399 6 38.0679 6.304 38.7239 6.912C39.3799 7.504 39.7079 8.288 39.7079 9.264C39.7079 10.416 39.2759 11.272 38.4119 11.832ZM35.8439 7.872H32.4599V11.016H35.8439C37.0599 11.016 37.6679 10.48 37.6679 9.408C37.6679 8.384 37.0599 7.872 35.8439 7.872ZM36.2999 16.104C36.9079 16.104 37.3719 15.96 37.6919 15.672C38.0279 15.384 38.1959 14.976 38.1959 14.448C38.1959 13.952 38.0279 13.568 37.6919 13.296C37.3719 13.008 36.9079 12.864 36.2999 12.864H32.4599V16.104H36.2999ZM43.9777 12.96C44.1857 14.032 44.6737 14.864 45.4417 15.456C46.2257 16.048 47.1857 16.344 48.3217 16.344C49.9057 16.344 51.0577 15.76 51.7777 14.592L53.5537 15.6C52.3857 17.408 50.6257 18.312 48.2737 18.312C46.3697 18.312 44.8177 17.72 43.6177 16.536C42.4337 15.336 41.8417 13.824 41.8417 12C41.8417 10.192 42.4257 8.688 43.5937 7.488C44.7617 6.288 46.2737 5.688 48.1297 5.688C49.8897 5.688 51.3217 6.312 52.4257 7.56C53.5457 8.792 54.1057 10.28 54.1057 12.024C54.1057 12.328 54.0817 12.64 54.0337 12.96H43.9777ZM48.1297 7.656C47.0097 7.656 46.0817 7.976 45.3457 8.616C44.6097 9.24 44.1537 10.08 43.9777 11.136H51.9937C51.8177 10 51.3697 9.136 50.6497 8.544C49.9297 7.952 49.0897 7.656 48.1297 7.656ZM62.1224 18.312C60.3144 18.312 58.8104 17.712 57.6104 16.512C56.4104 15.296 55.8104 13.792 55.8104 12C55.8104 10.208 56.4104 8.712 57.6104 7.512C58.8104 6.296 60.3144 5.688 62.1224 5.688C63.3064 5.688 64.3704 5.976 65.3144 6.552C66.2584 7.112 66.9624 7.872 67.4264 8.832L65.6744 9.84C65.3704 9.2 64.8984 8.688 64.2584 8.304C63.6344 7.92 62.9224 7.728 62.1224 7.728C60.9224 7.728 59.9144 8.136 59.0984 8.952C58.2984 9.768 57.8984 10.784 57.8984 12C57.8984 13.2 58.2984 14.208 59.0984 15.024C59.9144 15.84 60.9224 16.248 62.1224 16.248C62.9224 16.248 63.6424 16.064 64.2824 15.696C64.9224 15.312 65.4104 14.8 65.7464 14.16L67.5224 15.192C67.0104 16.136 66.2744 16.896 65.3144 17.472C64.3544 18.032 63.2904 18.312 62.1224 18.312ZM78.3245 6V8.016H74.2445V18H72.1565V8.016L68.0525 8.016V6L78.3245 6ZM88.8663 6H90.5463V18H88.4823V9.576L81.8343 18H80.1543V6H82.2183V14.424L88.8663 6ZM103.805 16.008H105.773V21.216H103.709V18H93.7246V6H95.8126V16.008H101.717V6H103.805V16.008ZM116.71 6H118.39V18H116.326V9.576L109.678 18H107.998V6H110.062V14.424L116.71 6ZM130.28 6H131.96V18H129.896V9.576L123.248 18H121.568V6H123.632V14.424L130.28 6ZM149.131 11.832C150.363 12.344 150.979 13.272 150.979 14.616C150.979 15.608 150.643 16.424 149.971 17.064C149.315 17.688 148.371 18 147.139 18L141.139 18V6H146.659C147.859 6 148.787 6.304 149.443 6.912C150.099 7.504 150.427 8.288 150.427 9.264C150.427 10.416 149.995 11.272 149.131 11.832ZM146.563 7.872H143.179V11.016L146.563 11.016C147.779 11.016 148.387 10.48 148.387 9.408C148.387 8.384 147.779 7.872 146.563 7.872ZM147.019 16.104C147.627 16.104 148.091 15.96 148.411 15.672C148.747 15.384 148.915 14.976 148.915 14.448C148.915 13.952 148.747 13.568 148.411 13.296C148.091 13.008 147.627 12.864 147.019 12.864L143.179 12.864V16.104L147.019 16.104ZM162.52 14.832H168.928V18H159.208V1.2H162.52V14.832ZM172.202 4.56C171.69 4.56 171.242 4.376 170.858 4.008C170.49 3.624 170.306 3.176 170.306 2.664C170.306 2.152 170.49 1.704 170.858 1.32C171.242 0.935999 171.69 0.743999 172.202 0.743999C172.73 0.743999 173.178 0.935999 173.546 1.32C173.93 1.704 174.122 2.152 174.122 2.664C174.122 3.176 173.93 3.624 173.546 4.008C173.178 4.376 172.73 4.56 172.202 4.56ZM170.666 18V6H173.762V18H170.666ZM183.052 3.84C181.356 3.712 180.508 4.392 180.508 5.88V6H183.052V8.976H180.508V18H177.412V8.976H175.684V6H177.412V5.88C177.412 4.184 177.884 2.896 178.828 2.016C179.772 1.136 181.18 0.751999 183.052 0.863999V3.84ZM186.641 13.272C187.057 14.776 188.185 15.528 190.025 15.528C191.209 15.528 192.105 15.128 192.713 14.328L195.209 15.768C194.025 17.48 192.281 18.336 189.977 18.336C187.993 18.336 186.401 17.736 185.201 16.536C184.001 15.336 183.401 13.824 183.401 12C183.401 10.192 183.993 8.688 185.177 7.488C186.361 6.272 187.881 5.664 189.737 5.664C191.497 5.664 192.945 6.272 194.081 7.488C195.233 8.704 195.809 10.208 195.809 12C195.809 12.4 195.769 12.824 195.689 13.272H186.641ZM186.593 10.872H192.713C192.537 10.056 192.169 9.448 191.609 9.048C191.065 8.648 190.441 8.448 189.737 8.448C188.905 8.448 188.217 8.664 187.673 9.096C187.129 9.512 186.769 10.104 186.593 10.872ZM198.115 12.24V9.264L207.115 9.264V12.24L198.115 12.24ZM212.944 9.408C212.944 9.728 213.152 9.992 213.568 10.2C214 10.392 214.52 10.568 215.128 10.728C215.736 10.872 216.344 11.064 216.952 11.304C217.56 11.528 218.072 11.912 218.488 12.456C218.92 13 219.136 13.68 219.136 14.496C219.136 15.728 218.672 16.68 217.744 17.352C216.832 18.008 215.688 18.336 214.312 18.336C211.848 18.336 210.168 17.384 209.272 15.48L211.96 13.968C212.312 15.008 213.096 15.528 214.312 15.528C215.416 15.528 215.968 15.184 215.968 14.496C215.968 14.176 215.752 13.92 215.32 13.728C214.904 13.52 214.392 13.336 213.784 13.176C213.176 13.016 212.568 12.816 211.96 12.576C211.352 12.336 210.832 11.96 210.4 11.448C209.984 10.92 209.776 10.264 209.776 9.48C209.776 8.296 210.208 7.368 211.072 6.696C211.952 6.008 213.04 5.664 214.336 5.664C215.312 5.664 216.2 5.888 217 6.336C217.8 6.768 218.432 7.392 218.896 8.208L216.256 9.648C215.872 8.832 215.232 8.424 214.336 8.424C213.936 8.424 213.6 8.512 213.328 8.688C213.072 8.864 212.944 9.104 212.944 9.408ZM227.639 8.976H224.927V13.968C224.927 14.384 225.031 14.688 225.239 14.88C225.447 15.072 225.751 15.184 226.151 15.216C226.551 15.232 227.047 15.224 227.639 15.192V18C225.511 18.24 224.007 18.04 223.127 17.4C222.263 16.76 221.831 15.616 221.831 13.968V8.976H219.743V6H221.831V3.576L224.927 2.64V6H227.639V8.976ZM237.904 6H241.216L236.848 18C236.224 19.728 235.392 20.976 234.352 21.744C233.328 22.528 232.048 22.88 230.512 22.8V19.92C231.344 19.936 232 19.76 232.48 19.392C232.976 19.024 233.368 18.432 233.656 17.616L228.736 6H232.12L235.24 14.064L237.904 6ZM242.689 18V0.48H245.785V18H242.689ZM251.235 13.272C251.651 14.776 252.779 15.528 254.619 15.528C255.803 15.528 256.699 15.128 257.307 14.328L259.803 15.768C258.619 17.48 256.875 18.336 254.571 18.336C252.587 18.336 250.995 17.736 249.795 16.536C248.595 15.336 247.995 13.824 247.995 12C247.995 10.192 248.587 8.688 249.771 7.488C250.955 6.272 252.475 5.664 254.331 5.664C256.091 5.664 257.539 6.272 258.675 7.488C259.827 8.704 260.403 10.208 260.403 12C260.403 12.4 260.363 12.824 260.283 13.272L251.235 13.272ZM251.187 10.872H257.307C257.131 10.056 256.763 9.448 256.203 9.048C255.659 8.648 255.035 8.448 254.331 8.448C253.499 8.448 252.811 8.664 252.267 9.096C251.723 9.512 251.363 10.104 251.187 10.872ZM277.036 6H279.124V18H277.036V12.984H270.82V18H268.732V6H270.82V10.992H277.036V6ZM283.767 12.96C283.975 14.032 284.463 14.864 285.231 15.456C286.015 16.048 286.975 16.344 288.111 16.344C289.695 16.344 290.847 15.76 291.567 14.592L293.343 15.6C292.175 17.408 290.415 18.312 288.063 18.312C286.159 18.312 284.607 17.72 283.407 16.536C282.223 15.336 281.631 13.824 281.631 12C281.631 10.192 282.215 8.688 283.383 7.488C284.551 6.288 286.063 5.688 287.919 5.688C289.679 5.688 291.111 6.312 292.215 7.56C293.335 8.792 293.895 10.28 293.895 12.024C293.895 12.328 293.871 12.64 293.823 12.96H283.767ZM287.919 7.656C286.799 7.656 285.871 7.976 285.135 8.616C284.399 9.24 283.943 10.08 283.767 11.136H291.783C291.607 10 291.159 9.136 290.439 8.544C289.719 7.952 288.879 7.656 287.919 7.656ZM306.146 16.008H307.802V21.216H305.738V18H296.738V21.216H294.674V16.008H296.138C296.906 14.952 297.29 13.472 297.29 11.568V6L306.146 6V16.008ZM298.514 16.008H304.082V7.944L299.354 7.944V11.568C299.354 13.36 299.074 14.84 298.514 16.008ZM318.045 11.832C319.277 12.344 319.893 13.272 319.893 14.616C319.893 15.608 319.557 16.424 318.885 17.064C318.229 17.688 317.285 18 316.053 18H310.053V6H315.573C316.773 6 317.701 6.304 318.357 6.912C319.013 7.504 319.341 8.288 319.341 9.264C319.341 10.416 318.909 11.272 318.045 11.832ZM315.477 7.872H312.093V11.016H315.477C316.693 11.016 317.301 10.48 317.301 9.408C317.301 8.384 316.693 7.872 315.477 7.872ZM315.933 16.104C316.541 16.104 317.005 15.96 317.325 15.672C317.661 15.384 317.829 14.976 317.829 14.448C317.829 13.952 317.661 13.568 317.325 13.296C317.005 13.008 316.541 12.864 315.933 12.864H312.093V16.104H315.933ZM330.859 6H332.539V18H330.475V9.576L323.827 18H322.146V6H324.211V14.424L330.859 6ZM350.477 18H348.029L343.541 12.312V18H341.477V12.312L336.989 18H334.565L339.581 11.808L334.805 6H337.229L341.477 11.304V6H343.541V11.304L347.789 6H350.237L345.437 11.808L350.477 18ZM361.187 6L362.867 6V18H360.803V9.576L354.155 18H352.475V6H354.539V14.424L361.187 6ZM378.045 6V18L376.005 18V9.288L372.189 15.432H371.925L368.109 9.288V18H366.045V6H368.277L372.045 12.072L375.813 6H378.045ZM391.36 16.488C390.128 17.704 388.632 18.312 386.872 18.312C385.112 18.312 383.616 17.704 382.384 16.488C381.168 15.272 380.56 13.776 380.56 12C380.56 10.224 381.168 8.728 382.384 7.512C383.616 6.296 385.112 5.688 386.872 5.688C388.632 5.688 390.128 6.296 391.36 7.512C392.592 8.728 393.208 10.224 393.208 12C393.208 13.776 392.592 15.272 391.36 16.488ZM386.872 16.272C388.072 16.272 389.08 15.864 389.896 15.048C390.712 14.232 391.12 13.216 391.12 12C391.12 10.784 390.712 9.768 389.896 8.952C389.08 8.136 388.072 7.728 386.872 7.728C385.688 7.728 384.688 8.136 383.872 8.952C383.056 9.768 382.648 10.784 382.648 12C382.648 13.216 383.056 14.232 383.872 15.048C384.688 15.864 385.688 16.272 386.872 16.272ZM401.31 18.312C399.502 18.312 397.998 17.712 396.798 16.512C395.598 15.296 394.998 13.792 394.998 12C394.998 10.208 395.598 8.712 396.798 7.512C397.998 6.296 399.502 5.688 401.31 5.688C402.494 5.688 403.558 5.976 404.502 6.552C405.446 7.112 406.15 7.872 406.614 8.832L404.862 9.84C404.558 9.2 404.086 8.688 403.446 8.304C402.822 7.92 402.11 7.728 401.31 7.728C400.11 7.728 399.102 8.136 398.286 8.952C397.486 9.768 397.086 10.784 397.086 12C397.086 13.2 397.486 14.208 398.286 15.024C399.102 15.84 400.11 16.248 401.31 16.248C402.11 16.248 402.83 16.064 403.47 15.696C404.11 15.312 404.598 14.8 404.934 14.16L406.71 15.192C406.198 16.136 405.462 16.896 404.502 17.472C403.542 18.032 402.478 18.312 401.31 18.312ZM417.512 6V8.016H413.432V18H411.344V8.016H407.24V6H417.512ZM424.406 10.32C425.606 10.32 426.598 10.68 427.382 11.4C428.182 12.104 428.582 13.024 428.582 14.16C428.582 15.296 428.182 16.224 427.382 16.944C426.598 17.648 425.606 18 424.406 18H419.342V6L421.43 6V10.32H424.406ZM424.406 16.056C424.998 16.056 425.494 15.888 425.894 15.552C426.31 15.2 426.518 14.736 426.518 14.16C426.518 13.584 426.31 13.12 425.894 12.768C425.494 12.416 424.998 12.24 424.406 12.24H421.43V16.056H424.406Z" fill="#353535"/>
</svg>
