<svg width="309" height="16" viewBox="0 0 309 16" fill="none" xmlns="http://www.w3.org/2000/svg">
<path d="M5.454 13.216C4.098 13.216 2.97 12.766 2.07 11.866C1.17 10.954 0.72 9.832 0.72 8.5C0.72 7.168 1.17 6.052 2.07 5.152C2.97 4.24 4.098 3.784 5.454 3.784C6.342 3.784 7.14 4 7.848 4.432C8.556 4.852 9.072 5.422 9.396 6.142L8.424 6.7C8.184 6.16 7.794 5.734 7.254 5.422C6.726 5.098 6.126 4.936 5.454 4.936C4.458 4.936 3.618 5.284 2.934 5.98C2.25 6.664 1.908 7.504 1.908 8.5C1.908 9.496 2.25 10.342 2.934 11.038C3.618 11.722 4.458 12.064 5.454 12.064C6.126 12.064 6.726 11.908 7.254 11.596C7.782 11.272 8.196 10.84 8.496 10.3L9.486 10.876C9.114 11.596 8.568 12.166 7.848 12.586C7.128 13.006 6.33 13.216 5.454 13.216ZM23.2516 11.848H24.5116V15.412H23.3236V13H15.9796V15.412H14.7916V11.848H15.8896C16.5016 11.044 16.8076 9.91 16.8076 8.446V4H23.2516V11.848ZM17.3296 11.848H22.0636V5.152H17.9956V8.446C17.9956 9.826 17.7736 10.96 17.3296 11.848ZM33.4993 11.866C32.5873 12.766 31.4713 13.216 30.1513 13.216C28.8313 13.216 27.7093 12.766 26.7853 11.866C25.8733 10.954 25.4173 9.832 25.4173 8.5C25.4173 7.168 25.8733 6.052 26.7853 5.152C27.7093 4.24 28.8313 3.784 30.1513 3.784C31.4713 3.784 32.5873 4.24 33.4993 5.152C34.4233 6.052 34.8853 7.168 34.8853 8.5C34.8853 9.832 34.4233 10.954 33.4993 11.866ZM27.6313 11.038C28.3153 11.722 29.1553 12.064 30.1513 12.064C31.1473 12.064 31.9873 11.722 32.6713 11.038C33.3553 10.342 33.6973 9.496 33.6973 8.5C33.6973 7.504 33.3553 6.664 32.6713 5.98C31.9873 5.284 31.1473 4.936 30.1513 4.936C29.1553 4.936 28.3153 5.284 27.6313 5.98C26.9473 6.664 26.6053 7.504 26.6053 8.5C26.6053 9.496 26.9473 10.342 27.6313 11.038ZM43.8005 13H42.3785L39.5705 9.292L36.7625 13H35.3405L38.8685 8.338L35.5745 4H36.9965L39.5705 7.402L42.1445 4H43.5665L40.2905 8.338L43.8005 13ZM52.3254 11.866C51.4134 12.766 50.2974 13.216 48.9774 13.216C47.6574 13.216 46.5354 12.766 45.6114 11.866C44.6994 10.954 44.2434 9.832 44.2434 8.5C44.2434 7.168 44.6994 6.052 45.6114 5.152C46.5354 4.24 47.6574 3.784 48.9774 3.784C50.2974 3.784 51.4134 4.24 52.3254 5.152C53.2494 6.052 53.7114 7.168 53.7114 8.5C53.7114 9.832 53.2494 10.954 52.3254 11.866ZM46.4574 11.038C47.1414 11.722 47.9814 12.064 48.9774 12.064C49.9734 12.064 50.8134 11.722 51.4974 11.038C52.1814 10.342 52.5234 9.496 52.5234 8.5C52.5234 7.504 52.1814 6.664 51.4974 5.98C50.8134 5.284 49.9734 4.936 48.9774 4.936C47.9814 4.936 47.1414 5.284 46.4574 5.98C45.7734 6.664 45.4314 7.504 45.4314 8.5C45.4314 9.496 45.7734 10.342 46.4574 11.038ZM62.9079 11.848H64.1679V15.412H62.9799V13H55.6359V15.412H54.4479V11.848H55.5459C56.1579 11.044 56.4639 9.91 56.4639 8.446V4H62.9079V11.848ZM56.9859 11.848H61.7199V5.152H57.6519V8.446C57.6519 9.826 57.4299 10.96 56.9859 11.848ZM72.3371 4H73.5251V13H72.3371V9.076H67.1531V13H65.9651V4H67.1531V7.924H72.3371V4ZM83.5793 11.866C82.6673 12.766 81.5513 13.216 80.2313 13.216C78.9113 13.216 77.7893 12.766 76.8653 11.866C75.9533 10.954 75.4973 9.832 75.4973 8.5C75.4973 7.168 75.9533 6.052 76.8653 5.152C77.7893 4.24 78.9113 3.784 80.2313 3.784C81.5513 3.784 82.6673 4.24 83.5793 5.152C84.5033 6.052 84.9653 7.168 84.9653 8.5C84.9653 9.832 84.5033 10.954 83.5793 11.866ZM77.7113 11.038C78.3953 11.722 79.2353 12.064 80.2313 12.064C81.2273 12.064 82.0673 11.722 82.7513 11.038C83.4353 10.342 83.7773 9.496 83.7773 8.5C83.7773 7.504 83.4353 6.664 82.7513 5.98C82.0673 5.284 81.2273 4.936 80.2313 4.936C79.2353 4.936 78.3953 5.284 77.7113 5.98C77.0273 6.664 76.6853 7.504 76.6853 8.5C76.6853 9.496 77.0273 10.342 77.7113 11.038ZM91.1474 13.216C89.7914 13.216 88.6634 12.766 87.7634 11.866C86.8634 10.954 86.4134 9.832 86.4134 8.5C86.4134 7.168 86.8634 6.052 87.7634 5.152C88.6634 4.24 89.7914 3.784 91.1474 3.784C92.0354 3.784 92.8334 4 93.5414 4.432C94.2494 4.852 94.7654 5.422 95.0894 6.142L94.1174 6.7C93.8774 6.16 93.4874 5.734 92.9474 5.422C92.4194 5.098 91.8194 4.936 91.1474 4.936C90.1514 4.936 89.3114 5.284 88.6274 5.98C87.9434 6.664 87.6014 7.504 87.6014 8.5C87.6014 9.496 87.9434 10.342 88.6274 11.038C89.3114 11.722 90.1514 12.064 91.1474 12.064C91.8194 12.064 92.4194 11.908 92.9474 11.596C93.4754 11.272 93.8894 10.84 94.1894 10.3L95.1794 10.876C94.8074 11.596 94.2614 12.166 93.5414 12.586C92.8214 13.006 92.0234 13.216 91.1474 13.216ZM103.189 4V5.152H100.003V13H98.8152V5.152H95.6292V4H103.189ZM108.291 7.42C109.131 7.42 109.839 7.684 110.415 8.212C111.003 8.728 111.297 9.394 111.297 10.21C111.297 11.026 111.003 11.698 110.415 12.226C109.839 12.742 109.131 13 108.291 13H104.637V4H105.825V7.42H108.291ZM108.291 11.848C108.795 11.848 109.221 11.698 109.569 11.398C109.929 11.098 110.109 10.702 110.109 10.21C110.109 9.718 109.929 9.322 109.569 9.022C109.221 8.722 108.795 8.572 108.291 8.572H105.825V11.848H108.291ZM120.778 3.784C122.098 3.784 123.214 4.24 124.126 5.152C125.05 6.052 125.512 7.168 125.512 8.5C125.512 9.832 125.05 10.954 124.126 11.866C123.214 12.766 122.098 13.216 120.778 13.216C119.566 13.216 118.522 12.826 117.646 12.046C116.782 11.254 116.284 10.264 116.152 9.076H114.28V13H113.092V4H114.28V7.924H116.152C116.284 6.736 116.782 5.752 117.646 4.972C118.522 4.18 119.566 3.784 120.778 3.784ZM118.258 11.038C118.942 11.722 119.782 12.064 120.778 12.064C121.774 12.064 122.614 11.722 123.298 11.038C123.982 10.342 124.324 9.496 124.324 8.5C124.324 7.504 123.982 6.664 123.298 5.98C122.614 5.284 121.774 4.936 120.778 4.936C119.782 4.936 118.942 5.284 118.258 5.98C117.574 6.664 117.232 7.504 117.232 8.5C117.232 9.496 117.574 10.342 118.258 11.038ZM139.531 11.866C138.619 12.766 137.503 13.216 136.183 13.216C134.863 13.216 133.741 12.766 132.817 11.866C131.905 10.954 131.449 9.832 131.449 8.5C131.449 7.168 131.905 6.052 132.817 5.152C133.741 4.24 134.863 3.784 136.183 3.784C137.503 3.784 138.619 4.24 139.531 5.152C140.455 6.052 140.917 7.168 140.917 8.5C140.917 9.832 140.455 10.954 139.531 11.866ZM133.663 11.038C134.347 11.722 135.187 12.064 136.183 12.064C137.179 12.064 138.019 11.722 138.703 11.038C139.387 10.342 139.729 9.496 139.729 8.5C139.729 7.504 139.387 6.664 138.703 5.98C138.019 5.284 137.179 4.936 136.183 4.936C135.187 4.936 134.347 5.284 133.663 5.98C132.979 6.664 132.637 7.504 132.637 8.5C132.637 9.496 132.979 10.342 133.663 11.038ZM149.033 4V5.152H145.847V13H144.659V5.152H141.473V4H149.033ZM157.231 0.399999H159.391V13H156.907V3.028L154.531 3.694L153.919 1.57L157.231 0.399999ZM165.812 4.486C167.12 4.522 168.182 4.948 168.998 5.764C169.814 6.568 170.222 7.6 170.222 8.86C170.222 10.144 169.796 11.2 168.944 12.028C168.092 12.844 166.994 13.252 165.65 13.252C164.306 13.252 163.208 12.844 162.356 12.028C161.516 11.212 161.096 10.156 161.096 8.86C161.096 7.9 161.342 7.054 161.834 6.322L165.758 0.399999H168.602L165.812 4.486ZM164.156 10.354C164.552 10.726 165.05 10.912 165.65 10.912C166.25 10.912 166.748 10.726 167.144 10.354C167.552 9.982 167.756 9.484 167.756 8.86C167.756 8.248 167.552 7.756 167.144 7.384C166.748 7.012 166.25 6.826 165.65 6.826C165.05 6.826 164.552 7.012 164.156 7.384C163.76 7.744 163.562 8.236 163.562 8.86C163.562 9.484 163.76 9.982 164.156 10.354ZM183.951 11.848H185.211V15.412H184.023V13H176.679V15.412H175.491V11.848H176.589C177.201 11.044 177.507 9.91 177.507 8.446V4H183.951V11.848ZM178.029 11.848H182.763V5.152H178.695V8.446C178.695 9.826 178.473 10.96 178.029 11.848ZM194.198 11.866C193.286 12.766 192.17 13.216 190.85 13.216C189.53 13.216 188.408 12.766 187.484 11.866C186.572 10.954 186.116 9.832 186.116 8.5C186.116 7.168 186.572 6.052 187.484 5.152C188.408 4.24 189.53 3.784 190.85 3.784C192.17 3.784 193.286 4.24 194.198 5.152C195.122 6.052 195.584 7.168 195.584 8.5C195.584 9.832 195.122 10.954 194.198 11.866ZM188.33 11.038C189.014 11.722 189.854 12.064 190.85 12.064C191.846 12.064 192.686 11.722 193.37 11.038C194.054 10.342 194.396 9.496 194.396 8.5C194.396 7.504 194.054 6.664 193.37 5.98C192.686 5.284 191.846 4.936 190.85 4.936C189.854 4.936 189.014 5.284 188.33 5.98C187.646 6.664 187.304 7.504 187.304 8.5C187.304 9.496 187.646 10.342 188.33 11.038ZM211.001 8.554V10.858H209.651V13H207.149V10.858H201.191V8.554L205.385 0.399999H208.049L203.873 8.554H207.149V5.566H209.651V8.554H211.001ZM216.924 13.252C215.352 13.252 214.116 12.658 213.216 11.47C212.328 10.27 211.884 8.68 211.884 6.7C211.884 4.72 212.328 3.136 213.216 1.948C214.116 0.747999 215.352 0.147999 216.924 0.147999C218.508 0.147999 219.744 0.747999 220.632 1.948C221.52 3.136 221.964 4.72 221.964 6.7C221.964 8.68 221.52 10.27 220.632 11.47C219.744 12.658 218.508 13.252 216.924 13.252ZM215.016 9.778C215.448 10.474 216.084 10.822 216.924 10.822C217.764 10.822 218.4 10.468 218.832 9.76C219.276 9.052 219.498 8.032 219.498 6.7C219.498 5.356 219.276 4.33 218.832 3.622C218.4 2.914 217.764 2.56 216.924 2.56C216.084 2.56 215.448 2.914 215.016 3.622C214.584 4.33 214.368 5.356 214.368 6.7C214.368 8.044 214.584 9.07 215.016 9.778ZM228.252 5.242C227.676 5.806 226.956 6.088 226.092 6.088C225.228 6.088 224.502 5.8 223.914 5.224C223.338 4.648 223.05 3.946 223.05 3.118C223.05 2.29 223.338 1.588 223.914 1.012C224.502 0.435999 225.228 0.147999 226.092 0.147999C226.956 0.147999 227.676 0.435999 228.252 1.012C228.828 1.576 229.116 2.278 229.116 3.118C229.116 3.958 228.828 4.666 228.252 5.242ZM224.328 11.092L232.536 1.966L233.634 2.578L225.408 11.722L224.328 11.092ZM225.264 3.946C225.48 4.162 225.75 4.27 226.074 4.27C226.398 4.27 226.668 4.162 226.884 3.946C227.1 3.718 227.208 3.442 227.208 3.118C227.208 2.794 227.1 2.524 226.884 2.308C226.668 2.092 226.398 1.984 226.074 1.984C225.75 1.984 225.48 2.092 225.264 2.308C225.06 2.524 224.958 2.794 224.958 3.118C224.958 3.442 225.06 3.718 225.264 3.946ZM234.336 12.352C233.76 12.928 233.04 13.216 232.176 13.216C231.312 13.216 230.592 12.928 230.016 12.352C229.44 11.776 229.152 11.074 229.152 10.246C229.152 9.418 229.44 8.716 230.016 8.14C230.592 7.564 231.312 7.276 232.176 7.276C233.04 7.276 233.76 7.564 234.336 8.14C234.912 8.716 235.2 9.418 235.2 10.246C235.2 11.074 234.912 11.776 234.336 12.352ZM231.366 11.074C231.582 11.29 231.852 11.398 232.176 11.398C232.5 11.398 232.764 11.284 232.968 11.056C233.184 10.828 233.292 10.558 233.292 10.246C233.292 9.922 233.184 9.652 232.968 9.436C232.764 9.208 232.5 9.094 232.176 9.094C231.852 9.094 231.582 9.208 231.366 9.436C231.162 9.652 231.06 9.922 231.06 10.246C231.06 10.57 231.162 10.846 231.366 11.074ZM247.524 4V5.152H242.952V13H241.764V4H247.524ZM256.161 11.866C255.249 12.766 254.133 13.216 252.813 13.216C251.493 13.216 250.371 12.766 249.447 11.866C248.535 10.954 248.079 9.832 248.079 8.5C248.079 7.168 248.535 6.052 249.447 5.152C250.371 4.24 251.493 3.784 252.813 3.784C254.133 3.784 255.249 4.24 256.161 5.152C257.085 6.052 257.547 7.168 257.547 8.5C257.547 9.832 257.085 10.954 256.161 11.866ZM250.293 11.038C250.977 11.722 251.817 12.064 252.813 12.064C253.809 12.064 254.649 11.722 255.333 11.038C256.017 10.342 256.359 9.496 256.359 8.5C256.359 7.504 256.017 6.664 255.333 5.98C254.649 5.284 253.809 4.936 252.813 4.936C251.817 4.936 250.977 5.284 250.293 5.98C249.609 6.664 249.267 7.504 249.267 8.5C249.267 9.496 249.609 10.342 250.293 11.038ZM266.744 11.848H268.004V15.412H266.816V13H259.472V15.412H258.284V11.848H259.382C259.994 11.044 260.3 9.91 260.3 8.446V4H266.744V11.848ZM260.822 11.848H265.556V5.152H261.488V8.446C261.488 9.826 261.266 10.96 260.822 11.848ZM276.991 11.866C276.079 12.766 274.963 13.216 273.643 13.216C272.323 13.216 271.201 12.766 270.277 11.866C269.365 10.954 268.909 9.832 268.909 8.5C268.909 7.168 269.365 6.052 270.277 5.152C271.201 4.24 272.323 3.784 273.643 3.784C274.963 3.784 276.079 4.24 276.991 5.152C277.915 6.052 278.377 7.168 278.377 8.5C278.377 9.832 277.915 10.954 276.991 11.866ZM271.123 11.038C271.807 11.722 272.647 12.064 273.643 12.064C274.639 12.064 275.479 11.722 276.163 11.038C276.847 10.342 277.189 9.496 277.189 8.5C277.189 7.504 276.847 6.664 276.163 5.98C275.479 5.284 274.639 4.936 273.643 4.936C272.647 4.936 271.807 5.284 271.123 5.98C270.439 6.664 270.097 7.504 270.097 8.5C270.097 9.496 270.439 10.342 271.123 11.038ZM286.089 8.374C287.073 8.734 287.565 9.436 287.565 10.48C287.565 11.212 287.319 11.818 286.827 12.298C286.347 12.766 285.651 13 284.739 13H280.365V4H284.379C285.255 4 285.933 4.228 286.413 4.684C286.893 5.128 287.133 5.704 287.133 6.412C287.133 7.312 286.785 7.966 286.089 8.374ZM284.379 5.152H281.553V7.888H284.379C285.423 7.888 285.945 7.42 285.945 6.484C285.945 6.064 285.807 5.74 285.531 5.512C285.267 5.272 284.883 5.152 284.379 5.152ZM284.739 11.848C285.267 11.848 285.669 11.722 285.945 11.47C286.233 11.218 286.377 10.864 286.377 10.408C286.377 9.988 286.233 9.658 285.945 9.418C285.669 9.166 285.267 9.04 284.739 9.04H281.553V11.848H284.739ZM293.019 7.42C293.859 7.42 294.567 7.684 295.143 8.212C295.731 8.728 296.025 9.394 296.025 10.21C296.025 11.026 295.731 11.698 295.143 12.226C294.567 12.742 293.859 13 293.019 13H289.365V4H290.553V7.42H293.019ZM297.285 4H298.473V13H297.285V4ZM293.019 11.848C293.523 11.848 293.949 11.698 294.297 11.398C294.657 11.098 294.837 10.702 294.837 10.21C294.837 9.718 294.657 9.322 294.297 9.022C293.949 8.722 293.523 8.572 293.019 8.572H290.553V11.848H293.019ZM308.562 13H307.14L304.332 9.292L301.524 13H300.102L303.63 8.338L300.336 4H301.758L304.332 7.402L306.906 4H308.328L305.052 8.338L308.562 13Z" fill="#353535"/>
</svg>
